<?xml version="1.0" standalone="no"?>
<!DOCTYPE svg PUBLIC "-//W3C//DTD SVG 20010904//EN"
 "http://www.w3.org/TR/2001/REC-SVG-20010904/DTD/svg10.dtd">
<svg version="1.0" xmlns="http://www.w3.org/2000/svg"
 width="2330.000000pt" height="2329.000000pt" viewBox="0 0 2330.000000 2329.000000"
 preserveAspectRatio="xMidYMid meet">
<metadata>
Created by potrace 1.16, written by Peter Selinger 2001-2019
</metadata>
<g transform="translate(0.000000,2329.000000) scale(0.100000,-0.100000)"
fill="#000000" stroke="none">
<path d="M905 13011 c-4 -303 -4 -836 0 -1186 l8 -635 307 0 c169 0 322 3 339
6 l31 7 -2 1176 -3 1176 -336 3 -336 2 -8 -549z"/>
<path d="M1942 12378 l3 -1183 325 -3 c179 -1 335 0 348 3 l22 5 0 394 c0 350
2 395 16 400 22 8 77 7 90 -2 6 -4 57 -155 113 -337 56 -181 113 -359 126
-395 l23 -65 348 -3 c192 -1 355 0 361 3 10 3 3 31 -23 102 -19 54 -98 276
-175 495 l-140 396 79 79 c243 241 290 623 115 926 -55 95 -191 224 -290 275
-165 85 -164 85 -791 90 l-552 3 2 -1183z m876 607 c98 -42 162 -167 132 -261
-33 -105 -109 -160 -234 -171 l-76 -6 0 227 0 226 70 0 c41 0 86 -6 108 -15z"/>
<path d="M3930 12665 c0 -1005 -2 -968 73 -1125 33 -69 56 -101 126 -170 52
-51 110 -98 146 -117 196 -103 432 -142 667 -109 341 48 562 203 659 462 41
108 44 181 44 1084 l0 865 -352 3 -352 2 -3 -804 c-3 -798 -3 -805 -24 -833
-39 -52 -83 -75 -137 -70 -51 4 -88 26 -121 71 -21 27 -21 39 -26 829 l-5 802
-347 3 -348 2 0 -895z"/>
<path d="M5962 12378 l3 -1183 325 -3 c179 -1 335 0 348 3 l22 5 0 395 0 395
49 0 c27 0 53 -6 58 -12 6 -7 61 -177 122 -378 62 -201 119 -375 127 -387 l14
-23 356 0 c335 0 356 1 351 18 -3 9 -43 125 -90 257 -47 132 -124 349 -171
482 l-86 243 78 77 c160 160 231 347 219 577 -3 55 -12 128 -21 161 -68 250
-267 448 -526 526 -73 22 -91 23 -628 27 l-552 4 2 -1184z m871 607 c19 -8 53
-35 75 -60 72 -82 79 -182 19 -272 -43 -63 -99 -91 -199 -99 l-78 -7 0 227 0
226 74 0 c42 0 89 -6 109 -15z"/>
<path d="M7990 12375 l0 -1185 638 2 637 3 0 290 0 290 -282 3 -283 2 0 165 0
165 273 0 c149 0 278 4 285 8 9 7 12 72 10 293 l-3 284 -282 3 -283 2 0 150 0
150 283 2 282 3 0 275 0 275 -637 3 -638 2 0 -1185z"/>
<path d="M9670 12375 l0 -1185 333 2 332 3 0 567 c0 312 4 563 8 559 8 -8 229
-667 323 -961 26 -80 51 -151 57 -158 7 -9 91 -12 381 -10 l371 3 0 1180 0
1180 -328 3 -328 2 3 -556 3 -556 -22 48 c-22 50 -80 224 -243 734 -50 157
-95 295 -100 308 l-10 22 -390 0 -390 0 0 -1185z"/>
<path d="M12155 13528 c-6 -21 -74 -373 -165 -863 -36 -196 -49 -263 -101
-535 -11 -58 -37 -199 -59 -315 -21 -115 -57 -304 -79 -420 -22 -115 -37 -213
-33 -217 5 -5 161 -7 347 -6 l339 3 12 65 c7 36 20 111 30 168 l17 102 217 0
216 0 23 -147 c12 -82 26 -158 31 -170 l10 -23 339 0 c187 0 342 3 344 8 2 4
-9 70 -24 147 -15 77 -43 228 -63 335 -58 306 -85 453 -116 615 -54 283 -180
950 -208 1105 l-29 155 -522 3 c-412 2 -522 0 -526 -10z m554 -743 c12 -77 38
-248 57 -380 19 -132 37 -255 40 -272 l6 -33 -131 0 -131 0 0 33 c0 17 5 50
10 72 5 22 18 105 30 185 11 80 32 217 45 305 14 88 27 178 29 200 3 22 5 42
5 45 1 2 5 0 9 -5 5 -6 18 -73 31 -150z"/>
<path d="M14095 13524 c-102 -17 -238 -64 -335 -116 -82 -43 -215 -136 -251
-174 -25 -26 -25 -18 13 -168 l10 -39 66 65 c318 311 751 390 1137 209 149
-70 277 -173 397 -318 33 -40 65 -73 71 -73 18 1 107 86 107 103 0 24 -205
232 -296 300 -147 110 -341 193 -508 216 -103 15 -312 12 -411 -5z"/>
<path d="M17806 13530 c-372 -59 -706 -310 -883 -665 -87 -173 -115 -301 -115
-510 0 -134 3 -163 30 -267 56 -218 160 -399 321 -558 208 -207 445 -318 721
-340 399 -31 707 81 975 354 159 162 249 318 306 533 27 100 37 357 19 471
-22 137 -76 287 -148 407 -156 262 -439 476 -729 551 -82 22 -126 27 -268 29
-93 2 -197 0 -229 -5z m323 -140 c398 -50 748 -349 864 -740 56 -185 59 -350
12 -535 -44 -173 -126 -323 -250 -454 -323 -342 -791 -432 -1200 -231 -345
170 -559 484 -593 867 -18 214 69 496 209 680 56 72 198 206 261 247 222 141
452 196 697 166z"/>
<path d="M15612 12363 l3 -1148 70 0 70 0 3 543 c2 540 2 542 23 542 38 0 57
-20 145 -147 438 -639 620 -901 637 -920 18 -20 30 -23 105 -23 63 0 83 3 79
13 -4 11 -587 855 -693 1002 l-44 63 63 11 c35 6 75 11 89 11 38 0 154 38 223
72 252 128 352 520 208 818 -47 97 -142 194 -233 238 -123 59 -158 65 -468 70
l-282 4 2 -1149z m543 986 c251 -47 394 -294 330 -568 -21 -88 -59 -154 -125
-214 -108 -99 -207 -126 -457 -127 l-143 0 0 467 0 466 168 -6 c92 -4 194 -11
227 -18z"/>
<path d="M19373 12643 c4 -918 2 -890 53 -1024 74 -196 256 -348 489 -410 114
-30 355 -30 470 0 305 80 492 276 537 561 10 66 13 271 13 910 l0 825 -77 3
-78 3 0 -783 c0 -447 -5 -824 -10 -878 -22 -205 -89 -324 -233 -414 -194 -120
-423 -143 -636 -63 -210 79 -313 197 -357 408 -16 75 -18 174 -23 904 l-6 820
-73 3 -73 3 4 -868z"/>
<path d="M21252 12363 l3 -1148 70 0 70 0 5 545 5 545 250 6 c236 5 255 7 330
32 194 64 332 223 365 418 18 105 8 287 -20 366 -55 157 -185 291 -332 343
-94 33 -175 40 -466 40 l-282 0 2 -1147z m538 997 c52 -6 116 -18 141 -27 117
-41 213 -143 254 -268 30 -90 28 -229 -5 -318 -43 -121 -143 -220 -267 -267
-78 -29 -171 -39 -355 -40 l-158 0 0 465 0 465 148 0 c81 0 190 -5 242 -10z"/>
<path d="M14444 12306 c-3 -7 -4 -40 -2 -72 l3 -59 411 -3 412 -2 -8 -38 c-5
-20 -16 -75 -25 -122 -23 -115 -48 -178 -106 -265 -119 -178 -347 -327 -606
-396 -120 -33 -314 -30 -448 5 -55 14 -133 42 -174 61 l-74 35 7 -52 c10 -90
25 -127 54 -142 95 -48 320 -80 497 -70 460 27 870 319 979 698 28 96 46 224
46 334 l0 102 -480 0 c-396 0 -482 -2 -486 -14z"/>
<path d="M12334 10840 c-111 -22 -238 -123 -275 -219 -33 -84 -32 -198 3 -273
32 -69 96 -136 163 -169 44 -21 64 -24 160 -24 155 0 155 0 155 125 0 55 -2
100 -4 100 -3 0 -27 -14 -55 -31 -45 -28 -57 -31 -106 -27 -59 5 -94 24 -129
72 -16 21 -21 42 -21 95 0 59 4 72 28 104 59 77 142 92 226 39 29 -17 54 -32
57 -32 8 0 4 169 -6 194 -6 17 -21 28 -47 35 -65 16 -107 19 -149 11z"/>
<path d="M15375 10835 c-122 -29 -208 -92 -256 -190 -29 -59 -32 -75 -32 -154
0 -72 4 -96 25 -143 56 -122 151 -189 279 -196 94 -5 163 4 184 24 11 12 15
39 15 110 0 86 -8 112 -26 83 -3 -6 -25 -20 -48 -30 -123 -56 -246 19 -246
150 0 65 21 105 72 144 63 46 138 40 216 -19 l34 -26 -4 105 c-1 58 -8 111
-14 117 -6 6 -42 16 -80 23 -54 11 -80 11 -119 2z"/>
<path d="M16940 10819 c-67 -23 -145 -81 -182 -134 -44 -64 -61 -126 -57 -213
6 -127 74 -232 191 -294 37 -20 57 -23 153 -23 65 0 121 5 138 12 27 12 27 13
27 113 0 55 -3 100 -7 100 -5 0 -28 -14 -52 -30 -80 -54 -194 -31 -239 49 -65
116 12 261 140 261 53 0 92 -16 122 -49 11 -12 23 -21 28 -21 14 0 10 206 -4
218 -16 13 -120 32 -167 31 -20 0 -61 -9 -91 -20z"/>
<path d="M17539 10826 c-100 -39 -175 -101 -217 -181 -24 -45 -27 -61 -27
-150 1 -81 5 -109 22 -147 28 -60 93 -132 152 -166 42 -25 57 -27 168 -31 114
-3 124 -1 182 24 73 33 133 94 169 173 21 47 25 73 26 147 1 79 -2 97 -27 146
-34 69 -100 132 -175 167 -69 32 -213 41 -273 18z m186 -175 c46 -21 79 -54
94 -94 50 -132 -83 -280 -212 -238 -131 43 -172 208 -75 298 59 55 123 66 193
34z"/>
<path d="M20510 10825 c-69 -22 -159 -100 -195 -170 -28 -54 -30 -66 -30 -164
0 -93 3 -113 26 -162 31 -65 82 -120 142 -151 58 -31 241 -38 316 -13 116 38
201 179 201 332 l0 33 -172 -2 -173 -3 -3 -59 c-4 -70 2 -76 75 -76 57 0 69
-9 53 -40 -30 -57 -135 -78 -197 -41 -17 11 -44 41 -59 67 -87 148 33 349 178
299 22 -7 46 -22 54 -34 23 -32 44 -51 58 -51 26 0 146 61 146 74 0 20 -55 91
-94 121 -19 15 -56 33 -82 41 -59 18 -185 17 -244 -1z"/>
<path d="M21190 10820 c-56 -26 -87 -54 -111 -102 -42 -82 -32 -187 22 -232
16 -13 66 -36 111 -51 93 -31 118 -48 118 -81 0 -61 -80 -72 -172 -24 l-57 30
-30 -57 c-17 -31 -31 -64 -31 -74 0 -39 115 -79 230 -79 146 0 239 78 248 210
6 88 -21 138 -96 178 -31 16 -75 35 -97 42 -55 18 -85 39 -85 61 0 40 78 52
150 23 23 -9 42 -15 43 -13 1 2 15 30 30 63 21 43 25 61 17 71 -18 22 -99 45
-175 51 -58 4 -78 1 -115 -16z"/>
<path d="M885 10807 c-3 -7 -4 -154 -3 -327 l3 -315 3672 -3 3672 -2 14 27
c25 49 257 616 257 628 0 3 -1712 5 -3805 5 -3050 0 -3807 -2 -3810 -13z"/>
<path d="M8823 10808 c-10 -14 -79 -184 -139 -343 -21 -55 -54 -142 -75 -194
-21 -52 -36 -98 -33 -103 6 -10 165 -10 180 0 6 4 18 27 26 52 l15 45 117 0
118 0 15 -45 c8 -25 20 -48 27 -52 6 -4 48 -8 94 -8 65 0 82 3 82 15 0 25
-221 609 -238 628 -12 13 -32 17 -97 17 -54 0 -86 -4 -92 -12z"/>
<path d="M9325 10808 c-3 -7 -4 -155 -3 -328 l3 -315 95 -3 c122 -4 252 12
304 38 55 26 112 83 144 144 23 44 27 63 27 141 0 77 -4 98 -26 146 -34 72
-77 114 -159 153 -63 30 -70 31 -222 34 -126 3 -159 1 -163 -10z m267 -148
c83 -23 137 -107 124 -194 -14 -88 -78 -145 -168 -149 l-43 -2 -3 178 -2 177
27 0 c16 0 45 -5 65 -10z"/>
<path d="M9928 10815 c-7 -7 232 -573 264 -625 16 -27 21 -29 77 -28 34 0 65
6 70 12 17 20 271 619 271 638 0 14 -176 10 -187 -4 -5 -7 -17 -31 -25 -53
-127 -317 -131 -324 -146 -284 -5 13 -36 92 -67 174 -32 83 -62 156 -68 163
-9 12 -177 18 -189 7z"/>
<path d="M10787 10813 c-12 -20 -84 -203 -154 -386 -41 -111 -82 -214 -89
-228 -7 -15 -10 -29 -7 -33 12 -12 180 -7 190 7 5 6 15 31 22 55 l12 43 116
-3 115 -3 17 -43 c10 -24 24 -48 32 -53 17 -11 179 -12 179 -1 0 11 -183 499
-216 577 -14 33 -31 63 -37 67 -16 10 -174 10 -180 1z"/>
<path d="M11294 10807 c-2 -7 -3 -154 -2 -327 l3 -315 85 0 85 0 5 185 5 185
50 -64 c28 -36 94 -120 148 -188 l98 -124 87 3 87 3 0 325 0 325 -87 3 -88 3
0 -191 c0 -128 -3 -189 -10 -185 -6 4 -29 32 -52 63 -51 70 -230 295 -242 303
-16 13 -167 9 -172 -4z"/>
<path d="M12662 10493 l3 -328 165 -3 c221 -4 212 -7 208 76 l-3 67 -98 3 -98
3 3 52 3 52 75 1 c120 1 110 -6 110 79 l0 74 -92 3 -93 3 -3 47 -3 47 98 3 98
3 0 70 0 70 -188 3 -187 2 2 -327z"/>
<path d="M13155 10809 c-3 -8 -4 -156 -3 -329 l3 -315 151 1 c197 2 247 16
318 87 77 78 101 133 101 237 0 73 -4 93 -28 141 -32 67 -100 132 -165 162
-40 18 -72 22 -209 25 -132 4 -164 2 -168 -9z m299 -159 c13 -5 37 -26 53 -46
25 -34 28 -45 28 -115 0 -62 -4 -83 -21 -106 -26 -35 -77 -61 -137 -69 l-47
-7 0 183 0 183 50 -7 c28 -4 61 -11 74 -16z"/>
<path d="M14094 10806 c-3 -7 -4 -40 -2 -72 l3 -59 67 -3 68 -3 2 -252 3 -252
85 0 85 0 3 253 2 252 54 0 c84 0 86 2 86 81 l0 69 -225 0 c-181 0 -227 -3
-231 -14z"/>
<path d="M14625 10808 c-3 -7 -4 -155 -3 -328 l3 -315 185 0 185 0 0 70 0 70
-95 5 -95 5 0 50 0 50 59 -3 c33 -2 75 -1 93 3 l33 6 0 74 0 74 -92 3 -93 3
-3 47 -3 47 98 3 98 3 0 70 0 70 -183 3 c-141 2 -184 0 -187 -10z"/>
<path d="M15702 10493 l3 -328 85 0 85 0 3 133 3 132 119 0 119 0 3 -132 3
-133 80 0 80 0 0 325 0 325 -80 0 -80 0 -3 -122 -3 -123 -119 0 -119 0 -3 122
-3 122 -88 3 -87 3 2 -327z"/>
<path d="M18310 10814 c-9 -3 -23 -24 -31 -47 -9 -23 -55 -143 -102 -267 -47
-124 -95 -247 -106 -274 -17 -39 -19 -51 -9 -58 16 -10 159 -10 174 0 6 4 18
27 26 52 l15 45 118 0 118 0 13 -46 c16 -54 26 -59 127 -59 46 0 69 4 73 13 4
13 -173 501 -218 600 l-21 47 -81 -1 c-45 -1 -88 -3 -96 -5z"/>
<path d="M18700 10745 l0 -75 70 0 70 0 0 -243 c0 -176 3 -246 12 -255 12 -12
124 -17 152 -6 14 5 16 37 16 255 l0 248 68 3 67 3 0 70 0 70 -227 3 -228 2 0
-75z"/>
<path d="M19236 10798 c-3 -13 -6 -159 -6 -325 l0 -303 23 -5 c12 -3 52 -5 87
-3 l65 3 0 325 0 325 -81 3 c-78 3 -82 2 -88 -20z"/>
<path d="M19535 10807 c-3 -7 -4 -154 -3 -327 l3 -315 85 0 85 0 3 183 c1 100
6 182 11 182 4 0 64 -73 133 -162 169 -219 157 -210 254 -206 l79 3 0 325 0
325 -87 3 -88 3 0 -188 -1 -188 -27 31 c-34 39 -196 240 -240 300 l-34 44 -84
0 c-59 0 -86 -4 -89 -13z"/>
</g>
</svg>
